<svg width="158" height="52" viewBox="0 0 158 52" fill="none" xmlns="http://www.w3.org/2000/svg">
<path d="M43.602 8.11506C37.0502 7.17145 27.5916 2.73647 22.0611 0V51.3325C41.9994 40.9999 45.7702 17.504 43.602 8.11506Z" fill="#1D3353"/>
<path d="M0.544415 8.11506C7.09625 7.17145 16.5305 2.73647 22.0611 0V51.3325C2.12276 40.9999 -1.62382 17.504 0.544415 8.11506Z" fill="#1D3353"/>
<path d="M41.7086 9.69993C35.733 8.83958 27.1063 4.79592 22.0621 2.3009V49.104C40.2469 39.6832 43.6861 18.2604 41.7086 9.69993Z" fill="#EEE4BD"/>
<path d="M2.43783 9.69993C8.41344 8.83958 17.0401 4.79592 22.0843 2.3009V49.104C3.89949 39.6832 0.46029 18.2604 2.43783 9.69993Z" fill="#EEE4BD"/>
<path d="M38.501 12.366C33.5044 11.6471 26.291 8.26804 22.0732 6.18311V45.2936C37.2788 37.4211 40.1546 19.5195 38.501 12.366Z" fill="#1D3353"/>
<path d="M5.66387 12.366C10.6605 11.6471 17.8739 8.26804 22.0917 6.18311V45.2936C6.88607 37.4211 4.0103 19.5195 5.66387 12.366Z" fill="#1D3353"/>
<path d="M29.6025 19.8954H14.5439C13.6198 19.8954 12.8707 20.6445 12.8707 21.5686V32.4442C12.8707 33.3683 13.6198 34.1174 14.5439 34.1174H29.6025C30.5266 34.1174 31.2757 33.3683 31.2757 32.4442V21.5686C31.2757 20.6445 30.5266 19.8954 29.6025 19.8954Z" fill="#EEE4BD"/>
<path d="M26.983 17.3856C26.983 15.2634 24.9231 13.3123 22.0732 13.3123C19.2232 13.3123 17.1634 15.2634 17.1634 17.3856V19.8953H15.2708V17.3856C15.2708 13.9528 18.4647 11.4197 22.0732 11.4197C25.6817 11.4197 28.8756 13.9528 28.8756 17.3856V19.8953H26.983V17.3856Z" fill="#EEE4BD"/>
<path d="M22.0732 27.7593C23.1821 27.7593 24.081 26.8603 24.081 25.7515C24.081 24.6426 23.1821 23.7437 22.0732 23.7437C20.9644 23.7437 20.0654 24.6426 20.0654 25.7515C20.0654 26.8603 20.9644 27.7593 22.0732 27.7593Z" fill="#1D3353"/>
<path d="M20.902 26.588H23.2444L22.9098 30.7709H21.2366L20.902 26.588Z" fill="#1D3353"/>
<path d="M51.6515 30.3511C52.9821 30.3511 53.6474 29.8579 53.6474 28.8714C53.6474 28.4699 53.5442 28.1545 53.3377 27.9251C53.1427 27.6957 52.7757 27.4949 52.2365 27.3229L50.8257 26.8583C49.1395 26.3077 48.2964 25.2008 48.2964 23.5376C48.2964 22.5741 48.5947 21.7826 49.1911 21.1632C49.7991 20.5324 50.7454 20.2169 52.0301 20.2169C52.5692 20.2169 53.1026 20.28 53.6302 20.4062C54.1578 20.5209 54.7199 20.7101 55.3164 20.974L54.6797 22.7462C54.1292 22.5282 53.6589 22.3734 53.2689 22.2816C52.8904 22.1784 52.5004 22.1268 52.0989 22.1268C51.5713 22.1268 51.1526 22.2243 50.8429 22.4192C50.5446 22.6028 50.3955 22.9412 50.3955 23.4344C50.3955 23.8014 50.4988 24.1054 50.7052 24.3463C50.9232 24.5757 51.2788 24.7707 51.772 24.9313L53.1829 25.3958C54.0317 25.6826 54.6683 26.1013 55.0927 26.6519C55.5286 27.191 55.7465 27.9079 55.7465 28.8026C55.7465 29.8349 55.4196 30.6723 54.7658 31.3146C54.112 31.9455 53.0854 32.2609 51.686 32.2609C51.1354 32.2609 50.5618 32.1978 49.9654 32.0717C49.3804 31.934 48.738 31.7046 48.0383 31.3834L48.675 29.6112C49.3173 29.8865 49.8622 30.0815 50.3095 30.1962C50.7683 30.2995 51.2157 30.3511 51.6515 30.3511Z" fill="black"/>
<path d="M64.7894 30.1102V32.0889H58.0104V20.389H64.6174V22.3676H60.0751V25.1722H64.1012V27.1508H60.0751V30.1102H64.7894Z" fill="black"/>
<path d="M68.8179 27.4605C68.8179 28.2979 69.0014 28.9861 69.3684 29.5252C69.7355 30.0528 70.3377 30.3167 71.175 30.3167C71.5192 30.3167 71.8747 30.2708 72.2418 30.179C72.6203 30.0873 73.0849 29.9324 73.6355 29.7145L74.2721 31.5039C73.6527 31.7792 73.0791 31.9742 72.5515 32.0889C72.0353 32.2036 71.5364 32.2609 71.0546 32.2609C70.0911 32.2609 69.2824 32.0544 68.6286 31.6415C67.9863 31.2286 67.5045 30.6608 67.1833 29.9381C66.8622 29.2155 66.7016 28.3896 66.7016 27.4605V25.0001C66.7016 24.071 66.8622 23.2451 67.1833 22.5225C67.5045 21.7998 67.9863 21.2378 68.6286 20.8363C69.2824 20.4234 70.0911 20.2169 71.0546 20.2169C71.5249 20.2169 72.0124 20.2743 72.5171 20.389C73.0218 20.4922 73.5724 20.6757 74.1688 20.9396L73.5322 22.7634C73.0046 22.5454 72.563 22.3906 72.2074 22.2988C71.8518 22.207 71.5077 22.1612 71.175 22.1612C70.3377 22.1612 69.7355 22.425 69.3684 22.9526C69.0014 23.4803 68.8179 24.1628 68.8179 25.0001V27.4605Z" fill="black"/>
<path d="M76.1506 20.389H78.2669V27.8907C78.2669 28.6477 78.4332 29.2442 78.7659 29.6801C79.0985 30.1045 79.6319 30.3167 80.366 30.3167C81.1001 30.3167 81.6335 30.1045 81.9661 29.6801C82.2988 29.2442 82.4651 28.6477 82.4651 27.8907V20.389H84.5814V27.8907C84.5814 29.2098 84.2315 30.2708 83.5318 31.0737C82.8321 31.8652 81.7769 32.2609 80.366 32.2609C78.9437 32.2609 77.8826 31.8652 77.1829 31.0737C76.4947 30.2708 76.1506 29.2098 76.1506 27.8907V20.389Z" fill="black"/>
<path d="M89.6138 27.7874V32.0889H87.5491V20.389H91.4548C92.6363 20.389 93.5424 20.6929 94.1733 21.3009C94.8156 21.8973 95.1368 22.7003 95.1368 23.7097V24.4495C95.1368 25.1148 94.9934 25.6998 94.7067 26.2045C94.4199 26.7092 94.007 27.0935 93.4679 27.3573C94.4084 28.9632 95.2114 30.5403 95.8767 32.0889H93.5195C92.946 30.655 92.2635 29.2212 91.472 27.7874H89.6138ZM91.4548 22.2816H89.6138V25.8948H91.4548C91.9595 25.8948 92.3438 25.7686 92.6076 25.5163C92.8829 25.2525 93.0205 24.8969 93.0205 24.4495V23.7097C93.0205 23.2738 92.8829 22.9297 92.6076 22.6773C92.3438 22.4135 91.9595 22.2816 91.4548 22.2816Z" fill="black"/>
<path d="M104.813 30.1102V32.0889H98.0338V20.389H104.641V22.3676H100.099V25.1722H104.125V27.1508H100.099V30.1102H104.813Z" fill="black"/>
<path d="M115.001 31.3318C114.714 31.5039 114.238 31.7046 113.573 31.934C112.919 32.1519 112.151 32.2609 111.267 32.2609C110.269 32.2609 109.432 32.0544 108.755 31.6415C108.09 31.2286 107.585 30.6608 107.241 29.9381C106.897 29.2155 106.725 28.3896 106.725 27.4605V25.0001C106.725 24.0481 106.897 23.2164 107.241 22.5053C107.585 21.7826 108.096 21.2206 108.772 20.8191C109.461 20.4177 110.321 20.2169 111.353 20.2169C111.858 20.2169 112.38 20.2743 112.919 20.389C113.458 20.4922 114.049 20.6872 114.691 20.974L114.055 22.7806C113.493 22.5626 113.005 22.4078 112.592 22.316C112.191 22.2128 111.789 22.1612 111.388 22.1612C110.493 22.1612 109.845 22.4192 109.443 22.9354C109.042 23.4401 108.841 24.1283 108.841 25.0001V27.4605C108.841 28.2864 109.042 28.9632 109.443 29.4908C109.856 30.0184 110.499 30.2823 111.371 30.2823C111.634 30.2823 111.921 30.2593 112.231 30.2134C112.541 30.1676 112.839 30.1045 113.126 30.0242V27.4605H111.233V25.6539H115.001V31.3318Z" fill="black"/>
<path d="M117.35 20.389H119.466V27.8907C119.466 28.6477 119.633 29.2442 119.965 29.6801C120.298 30.1045 120.831 30.3167 121.566 30.3167C122.3 30.3167 122.833 30.1045 123.166 29.6801C123.498 29.2442 123.665 28.6477 123.665 27.8907V20.389H125.781V27.8907C125.781 29.2098 125.431 30.2708 124.731 31.0737C124.032 31.8652 122.976 32.2609 121.566 32.2609C120.143 32.2609 119.082 31.8652 118.383 31.0737C117.694 30.2708 117.35 29.2098 117.35 27.8907V20.389Z" fill="black"/>
<path d="M134.725 32.0889L134.002 29.8005H129.994L129.271 32.0889H127.223L131.129 20.389H132.953L136.876 32.0889H134.725ZM131.112 26.2217L130.579 27.9079H133.4L132.867 26.2217L132.007 23.2623L131.112 26.2217Z" fill="black"/>
<path d="M140.895 27.7874V32.0889H138.83V20.389H142.736C143.917 20.389 144.824 20.6929 145.454 21.3009C146.097 21.8973 146.418 22.7003 146.418 23.7097V24.4495C146.418 25.1148 146.275 25.6998 145.988 26.2045C145.701 26.7092 145.288 27.0935 144.749 27.3573C145.69 28.9632 146.492 30.5403 147.158 32.0889H144.801C144.227 30.655 143.545 29.2212 142.753 27.7874H140.895ZM142.736 22.2816H140.895V25.8948H142.736C143.241 25.8948 143.625 25.7686 143.889 25.5163C144.164 25.2525 144.302 24.8969 144.302 24.4495V23.7097C144.302 23.2738 144.164 22.9297 143.889 22.6773C143.625 22.4135 143.241 22.2816 142.736 22.2816Z" fill="black"/>
<path d="M149.315 32.0889V20.389H153.272C154.672 20.389 155.738 20.779 156.472 21.559C157.207 22.339 157.574 23.486 157.574 25.0001V27.4605C157.574 28.9861 157.207 30.1389 156.472 30.9189C155.738 31.6989 154.672 32.0889 153.272 32.0889H149.315ZM153.186 22.3676H151.38V30.1102H153.186C154.001 30.1102 154.58 29.9095 154.924 29.508C155.28 29.1065 155.457 28.424 155.457 27.4605V25.0001C155.457 24.0481 155.28 23.3713 154.924 22.9698C154.58 22.5684 154.001 22.3676 153.186 22.3676Z" fill="black"/>
</svg>
